<svg xmlns="http://www.w3.org/2000/svg" width="1100" height="434" viewBox="0 0 1100 434">
<rect width="100%" height="100%" fill="#ffffff"/>
<text x="24" y="32" font-family="Arial, sans-serif" font-size="22" font-weight="700">Paired attack success rate (complete models)</text>
<text x="330" y="32" font-family="Arial, sans-serif" font-size="13" fill="#555">Paired attack success rate</text>
<text x="24" y="74" font-family="Arial, sans-serif" font-size="13">deepseek-ai/DeepSeek-V4-Flash</text>
<rect x="330" y="59" width="620" height="18" fill="#edf1f5"/>
<rect x="330" y="59" width="620.0" height="18" fill="#b54135"/>
<text x="964" y="74" font-family="Arial, sans-serif" font-size="13">100.0%</text>
<text x="24" y="108" font-family="Arial, sans-serif" font-size="13">deepseek-ai/DeepSeek-V4-Pro</text>
<rect x="330" y="93" width="620" height="18" fill="#edf1f5"/>
<rect x="330" y="93" width="620.0" height="18" fill="#b54135"/>
<text x="964" y="108" font-family="Arial, sans-serif" font-size="13">100.0%</text>
<text x="24" y="142" font-family="Arial, sans-serif" font-size="13">Pro/moonshotai/Kimi-K2.6</text>
<rect x="330" y="127" width="620" height="18" fill="#edf1f5"/>
<rect x="330" y="127" width="570.4" height="18" fill="#b54135"/>
<text x="964" y="142" font-family="Arial, sans-serif" font-size="13">92.0%</text>
<text x="24" y="176" font-family="Arial, sans-serif" font-size="13">Qwen/Qwen3-30B-A3B-Instruct-2507</text>
<rect x="330" y="161" width="620" height="18" fill="#edf1f5"/>
<rect x="330" y="161" width="533.2" height="18" fill="#b54135"/>
<text x="964" y="176" font-family="Arial, sans-serif" font-size="13">86.0%</text>
<text x="24" y="210" font-family="Arial, sans-serif" font-size="13">Qwen/Qwen3.6-27B</text>
<rect x="330" y="195" width="620" height="18" fill="#edf1f5"/>
<rect x="330" y="195" width="496.0" height="18" fill="#b54135"/>
<text x="964" y="210" font-family="Arial, sans-serif" font-size="13">80.0%</text>
<text x="24" y="244" font-family="Arial, sans-serif" font-size="13">stepfun-ai/Step-3.5-Flash</text>
<rect x="330" y="229" width="620" height="18" fill="#edf1f5"/>
<rect x="330" y="229" width="198.4" height="18" fill="#b54135"/>
<text x="964" y="244" font-family="Arial, sans-serif" font-size="13">32.0%</text>
<text x="24" y="278" font-family="Arial, sans-serif" font-size="13">Pro/zai-org/GLM-5.1</text>
<rect x="330" y="263" width="620" height="18" fill="#edf1f5"/>
<rect x="330" y="263" width="111.6" height="18" fill="#b54135"/>
<text x="964" y="278" font-family="Arial, sans-serif" font-size="13">18.0%</text>
<text x="24" y="312" font-family="Arial, sans-serif" font-size="13">MiniMaxAI/MiniMax-M2.5</text>
<rect x="330" y="297" width="620" height="18" fill="#edf1f5"/>
<rect x="330" y="297" width="62.0" height="18" fill="#b54135"/>
<text x="964" y="312" font-family="Arial, sans-serif" font-size="13">10.0%</text>
<text x="24" y="346" font-family="Arial, sans-serif" font-size="13">Pro/MiniMaxAI/MiniMax-M2.5</text>
<rect x="330" y="331" width="620" height="18" fill="#edf1f5"/>
<rect x="330" y="331" width="37.2" height="18" fill="#b54135"/>
<text x="964" y="346" font-family="Arial, sans-serif" font-size="13">6.0%</text>
<text x="24" y="380" font-family="Arial, sans-serif" font-size="13">Qwen/Qwen3-Coder-30B-A3B-Instruct</text>
<rect x="330" y="365" width="620" height="18" fill="#edf1f5"/>
<rect x="330" y="365" width="24.8" height="18" fill="#b54135"/>
<text x="964" y="380" font-family="Arial, sans-serif" font-size="13">4.0%</text>
</svg>