<svg xmlns="http://www.w3.org/2000/svg" width="960" height="640" viewBox="0 0 960 640">
<rect width="100%" height="100%" fill="#ffffff"/>
<text x="24" y="32" font-family="Arial, sans-serif" font-size="22" font-weight="700">Utility vs paired attack success</text>
<line x1="90" y1="560" x2="920" y2="560" stroke="#333"/>
<line x1="90" y1="50" x2="90" y2="560" stroke="#333"/>
<text x="435.0" y="615" font-family="Arial, sans-serif" font-size="14">Utility rate</text>
<text x="18" y="305.0" transform="rotate(-90 18 305.0)" font-family="Arial, sans-serif" font-size="14">Paired attack success rate</text>
<line x1="90.0" y1="560" x2="90.0" y2="566" stroke="#333"/>
<text x="80.0" y="584" font-family="Arial, sans-serif" font-size="11">0</text>
<line x1="84" y1="560.0" x2="90" y2="560.0" stroke="#333"/>
<text x="56" y="564.0" font-family="Arial, sans-serif" font-size="11">0</text>
<line x1="90" y1="560.0" x2="920" y2="560.0" stroke="#e6e8eb"/>
<line x1="256.0" y1="560" x2="256.0" y2="566" stroke="#333"/>
<text x="246.0" y="584" font-family="Arial, sans-serif" font-size="11">20</text>
<line x1="84" y1="458.0" x2="90" y2="458.0" stroke="#333"/>
<text x="56" y="462.0" font-family="Arial, sans-serif" font-size="11">20</text>
<line x1="90" y1="458.0" x2="920" y2="458.0" stroke="#e6e8eb"/>
<line x1="422.0" y1="560" x2="422.0" y2="566" stroke="#333"/>
<text x="412.0" y="584" font-family="Arial, sans-serif" font-size="11">40</text>
<line x1="84" y1="356.0" x2="90" y2="356.0" stroke="#333"/>
<text x="56" y="360.0" font-family="Arial, sans-serif" font-size="11">40</text>
<line x1="90" y1="356.0" x2="920" y2="356.0" stroke="#e6e8eb"/>
<line x1="588.0" y1="560" x2="588.0" y2="566" stroke="#333"/>
<text x="578.0" y="584" font-family="Arial, sans-serif" font-size="11">60</text>
<line x1="84" y1="254.0" x2="90" y2="254.0" stroke="#333"/>
<text x="56" y="258.0" font-family="Arial, sans-serif" font-size="11">60</text>
<line x1="90" y1="254.0" x2="920" y2="254.0" stroke="#e6e8eb"/>
<line x1="754.0" y1="560" x2="754.0" y2="566" stroke="#333"/>
<text x="744.0" y="584" font-family="Arial, sans-serif" font-size="11">80</text>
<line x1="84" y1="152.0" x2="90" y2="152.0" stroke="#333"/>
<text x="56" y="156.0" font-family="Arial, sans-serif" font-size="11">80</text>
<line x1="90" y1="152.0" x2="920" y2="152.0" stroke="#e6e8eb"/>
<line x1="920.0" y1="560" x2="920.0" y2="566" stroke="#333"/>
<text x="910.0" y="584" font-family="Arial, sans-serif" font-size="11">100</text>
<line x1="84" y1="50.0" x2="90" y2="50.0" stroke="#333"/>
<text x="56" y="54.0" font-family="Arial, sans-serif" font-size="11">100</text>
<line x1="90" y1="50.0" x2="920" y2="50.0" stroke="#e6e8eb"/>
<circle cx="903.4" cy="50.0" r="7" fill="#b54135" opacity="0.88"/>
<text x="913.4" y="42.0" font-family="Arial, sans-serif" font-size="11">deepseek-ai/DeepSeek-V4-Flash</text>
<circle cx="903.4" cy="50.0" r="7" fill="#b54135" opacity="0.88"/>
<text x="913.4" y="42.0" font-family="Arial, sans-serif" font-size="11">deepseek-ai/DeepSeek-V4-Pro</text>
<circle cx="903.4" cy="90.8" r="7" fill="#b54135" opacity="0.88"/>
<text x="913.4" y="82.8" font-family="Arial, sans-serif" font-size="11">Pro/moonshotai/Kimi-K2.6</text>
<circle cx="920.0" cy="509.0" r="7" fill="#2f7d4e" opacity="0.88"/>
<text x="930.0" y="501.0" font-family="Arial, sans-serif" font-size="11">MiniMaxAI/MiniMax-M2.5</text>
<circle cx="920.0" cy="529.4" r="7" fill="#2f7d4e" opacity="0.88"/>
<text x="930.0" y="521.4" font-family="Arial, sans-serif" font-size="11">Pro/MiniMaxAI/MiniMax-M2.5</text>
<circle cx="505.0" cy="468.2" r="7" fill="#b54135" opacity="0.88"/>
<text x="515.0" y="460.2" font-family="Arial, sans-serif" font-size="11">Pro/zai-org/GLM-5.1</text>
<circle cx="754.0" cy="539.6" r="7" fill="#2f7d4e" opacity="0.88"/>
<text x="764.0" y="531.6" font-family="Arial, sans-serif" font-size="11">Qwen/Qwen3-Coder-30B-A3B-Instruct</text>
<circle cx="886.8" cy="121.4" r="7" fill="#b54135" opacity="0.88"/>
<text x="896.8" y="113.4" font-family="Arial, sans-serif" font-size="11">Qwen/Qwen3-30B-A3B-Instruct-2507</text>
<circle cx="903.4" cy="152.0" r="7" fill="#b54135" opacity="0.88"/>
<text x="913.4" y="144.0" font-family="Arial, sans-serif" font-size="11">Qwen/Qwen3.6-27B</text>
<circle cx="886.8" cy="396.8" r="7" fill="#2f7d4e" opacity="0.88"/>
<text x="896.8" y="388.8" font-family="Arial, sans-serif" font-size="11">stepfun-ai/Step-3.5-Flash</text>
</svg>